<?xml version="1.0" encoding="UTF-8"?>
<svg width="121px" height="9px" viewBox="0 0 121 9" version="1.1" xmlns="http://www.w3.org/2000/svg" xmlns:xlink="http://www.w3.org/1999/xlink">
    <!-- Generator: Sketch 48.1 (47250) - http://www.bohemiancoding.com/sketch -->
    <title>logo_txt</title>
    <desc>Created with Sketch.</desc>
    <defs></defs>
    <g id="Signup" stroke="none" stroke-width="1" fill="none" fill-rule="evenodd" transform="translate(-127.000000, -114.000000)">
        <path d="M127,114.156 L128.313,114.156 C129.431,114.156 130.133,114.299 130.705,114.832 C131.173,115.274 131.394,115.833 131.394,116.548 C131.394,116.886 131.342,117.237 131.134,117.575 C130.939,117.913 130.679,118.082 130.484,118.173 C130.64,118.212 131.173,118.355 131.602,118.797 C132.07,119.291 132.174,119.889 132.174,120.422 C132.174,121.046 132.018,121.54 131.602,121.982 C130.913,122.71 129.834,122.827 129.171,122.827 L127,122.827 L127,114.156 Z M128.326,115.404 L128.326,117.887 L128.729,117.887 C129.054,117.887 129.496,117.848 129.808,117.549 C130.107,117.263 130.146,116.86 130.146,116.561 C130.146,116.301 130.107,115.989 129.834,115.729 C129.535,115.443 129.158,115.404 128.781,115.404 L128.326,115.404 Z M128.326,118.979 L128.326,121.579 L129.132,121.579 C129.509,121.579 130.107,121.514 130.445,121.241 C130.705,121.033 130.874,120.669 130.874,120.279 C130.874,119.928 130.744,119.59 130.523,119.369 C130.159,119.018 129.626,118.979 129.158,118.979 L128.326,118.979 Z M140.43974,114.156 L141.76574,114.156 L141.76574,121.579 L144.31374,121.579 L144.31374,122.827 L140.43974,122.827 L140.43974,114.156 Z M152.163481,114.156 L153.489481,114.156 L153.489481,122.827 L152.163481,122.827 L152.163481,114.156 Z M166.565221,115.404 L164.576221,115.404 L164.576221,122.827 L163.250221,122.827 L163.250221,115.404 L161.261221,115.404 L161.261221,114.156 L166.565221,114.156 L166.565221,115.404 Z M180.108961,114.156 L175.844961,121.579 L180.004961,121.579 L180.004961,122.827 L173.686961,122.827 L177.950961,115.404 L174.388961,115.404 L174.388961,114.156 L180.108961,114.156 Z M189.466702,114.156 L189.466702,117.614 L192.820702,114.156 L194.562702,114.156 L190.649702,118.082 L194.588702,122.827 L192.820702,122.827 L189.726702,118.979 L189.466702,119.239 L189.466702,122.827 L188.140702,122.827 L188.140702,114.156 L189.466702,114.156 Z M202.360442,114.156 L203.907442,114.156 C204.960442,114.156 205.636442,114.286 206.195442,114.663 C207.144442,115.3 207.222442,116.327 207.222442,116.704 C207.222442,117.952 206.455442,118.862 205.298442,119.122 L208.002442,122.827 L206.403442,122.827 L203.920442,119.278 L203.686442,119.278 L203.686442,122.827 L202.360442,122.827 L202.360442,114.156 Z M203.686442,115.378 L203.686442,118.134 L204.102442,118.134 C204.466442,118.134 205.948442,118.095 205.948442,116.717 C205.948442,115.495 204.791442,115.378 204.141442,115.378 L203.686442,115.378 Z M220.688183,114.156 L220.688183,115.404 L217.230183,115.404 L217.230183,117.601 L220.584183,117.601 L220.584183,118.849 L217.230183,118.849 L217.230183,121.579 L220.688183,121.579 L220.688183,122.827 L215.904183,122.827 L215.904183,114.156 L220.688183,114.156 Z M229.005923,114.156 L230.331923,114.156 L230.331923,122.827 L229.005923,122.827 L229.005923,114.156 Z M243.498663,119.538 L243.498663,118.316 L247.073663,118.316 L247.073663,118.381 C247.073663,119.863 246.631663,121.072 245.786663,121.891 C244.889663,122.762 243.823663,122.996 242.835663,122.996 C241.574663,122.996 240.677663,122.632 239.884663,121.813 C239.039663,120.942 238.597663,119.785 238.597663,118.537 C238.597663,117.185 239.143663,116.015 239.858663,115.3 C240.599663,114.546 241.782663,114 243.121663,114 C243.901663,114 244.707663,114.169 245.383663,114.546 C246.098663,114.949 246.540663,115.456 246.787663,115.846 L245.734663,116.587 C245.474663,116.223 245.084663,115.833 244.668663,115.599 C244.187663,115.313 243.667663,115.222 243.134663,115.222 C242.003663,115.222 241.275663,115.69 240.846663,116.119 C240.274663,116.691 239.923663,117.614 239.923663,118.55 C239.923663,119.421 240.248663,120.292 240.820663,120.903 C241.418663,121.54 242.159663,121.774 242.991663,121.774 C243.745663,121.774 244.369663,121.553 244.928663,121.007 C245.409663,120.539 245.604663,120.032 245.656663,119.538 L243.498663,119.538 Z" id="logo_txt" fill="#FFFFFF"></path>
    </g>
</svg>