<?xml version="1.0" encoding="UTF-8"?>
<svg width="202px" height="63px" viewBox="0 0 202 63" version="1.1" xmlns="http://www.w3.org/2000/svg" xmlns:xlink="http://www.w3.org/1999/xlink">
    <!-- Generator: Sketch 48.1 (47250) - http://www.bohemiancoding.com/sketch -->
    <title>text_signup</title>
    <desc>Created with Sketch.</desc>
    <defs></defs>
    <g id="Signup" stroke="none" stroke-width="1" fill="none" fill-rule="evenodd" transform="translate(-86.000000, -184.000000)">
        <g id="text_signup" transform="translate(84.000000, 180.000000)" fill="#FFFFFF">
            <path d="M26.4725002,8.78 L22.7325002,13.675 C20.5875002,10.815 18.0575002,10.54 16.7375002,10.54 C12.8875002,10.54 11.6775002,12.96 11.6775002,14.83 C11.6775002,15.71 11.9525002,16.535 12.8325002,17.305 C13.7125002,18.13 14.9225002,18.57 17.2325002,19.395 C20.0925002,20.385 22.7875002,21.375 24.6575002,23.08 C26.3075002,24.565 27.7925002,27.04 27.7925002,30.78 C27.7925002,37.93 22.6225002,42.825 15.0325002,42.825 C8.26750021,42.825 4.30750021,38.7 2.38250021,35.895 L7.05750021,31.44 C8.81750021,35.015 12.1725002,36.335 14.7575002,36.335 C18.0025002,36.335 20.4225002,34.355 20.4225002,31.275 C20.4225002,29.955 19.9825002,28.91 18.9925002,27.975 C17.6175002,26.71 15.4175002,25.995 13.3275002,25.28 C11.4025002,24.62 9.09250021,23.74 7.22250021,22.09 C6.01250021,21.045 4.30750021,19.01 4.30750021,15.27 C4.30750021,9.88 7.93750021,4.49 16.0775002,4.49 C18.3875002,4.49 22.7325002,4.93 26.4725002,8.78 Z M35.5750001,5.315 L42.7250001,5.315 L42.7250001,42 L35.5750001,42 L35.5750001,5.315 Z M71.1875001,28.525 L71.1875001,22.365 L88.0175001,22.365 L88.0175001,22.805 C88.0175001,25.28 87.6875001,32.98 82.6275001,37.985 C78.8325001,41.78 74.1575001,42.825 69.5925001,42.825 C65.0275001,42.825 60.2975001,41.89 56.2825001,37.875 C55.0175001,36.61 50.8375001,31.99 50.8375001,23.74 C50.8375001,16.645 54.0275001,12.3 56.2275001,10.1 C58.9775001,7.295 63.5975001,4.49 70.6925001,4.49 C73.4425001,4.49 76.3575001,4.93 79.1625001,6.415 C81.5275001,7.625 84.1125001,9.825 86.0375001,13.125 L79.8225001,16.48 C78.5575001,14.005 76.6875001,12.74 75.5325001,12.135 C73.9925001,11.365 72.0675001,10.98 70.3625001,10.98 C67.4475001,10.98 64.1475001,12.025 61.8925001,14.225 C59.8025001,16.26 58.2075001,19.78 58.2075001,23.905 C58.2075001,28.8 60.2975001,31.715 61.8375001,33.2 C63.4875001,34.795 66.0725001,36.335 69.9775001,36.335 C72.3975001,36.335 75.1475001,35.675 77.1825001,34.135 C78.6125001,33.035 80.0425001,31.165 80.6475001,28.525 L71.1875001,28.525 Z M103.28,42 L96.13,42 L96.13,5.315 L101.08,5.315 L123.41,29.79 L123.41,5.315 L130.56,5.315 L130.56,42 L125.61,42 L103.28,17.47 L103.28,42 Z M140.4325,5.315 L147.5825,5.315 L147.5825,28.36 C147.5825,31.165 148.5175,32.87 149.3425,33.805 C150.3875,35.07 152.3125,36.335 155.1725,36.335 C158.0325,36.335 159.9575,35.07 161.0025,33.805 C161.8275,32.87 162.7625,31.165 162.7625,28.36 L162.7625,5.315 L169.9125,5.315 L169.9125,27.755 C169.9125,31.22 169.3625,34.74 167.1625,37.545 C164.5225,41.01 159.9025,42.825 155.1725,42.825 C150.4425,42.825 145.8225,41.01 143.1825,37.545 C140.9825,34.74 140.4325,31.22 140.4325,27.755 L140.4325,5.315 Z M179.785,5.315 L190.455,5.315 C194.58,5.315 197.44,5.755 200.135,8.12 C203.105,10.76 203.875,14.335 203.875,16.975 C203.875,18.405 203.655,22.365 200.85,25.17 C198.815,27.205 195.79,28.415 191.555,28.415 L186.935,28.415 L186.935,42 L179.785,42 L179.785,5.315 Z M186.935,11.475 L186.935,22.255 L189.85,22.255 C191.225,22.255 192.985,22.255 194.525,21.1 C195.845,20.055 196.505,18.405 196.505,16.81 C196.505,14.775 195.515,13.4 194.47,12.63 C192.985,11.585 191.115,11.475 189.41,11.475 L186.935,11.475 Z" id="SIGNUP"></path>
            <path d="M8.70499931,55.995 L8.70499931,57.045 L5.25499931,57.045 L5.25499931,60 L8.58499931,60 L8.58499931,61.05 L5.25499931,61.05 L5.25499931,66 L4.14499931,66 L4.14499931,55.995 L8.70499931,55.995 Z M18.7299994,66.18 C15.8349994,66.18 13.5249994,63.975 13.5249994,61.005 C13.5249994,58.02 15.8499994,55.83 18.7299994,55.83 C21.6099994,55.83 23.9349994,58.02 23.9349994,61.005 C23.9349994,63.975 21.6249994,66.18 18.7299994,66.18 Z M18.7299994,56.88 C16.4799994,56.88 14.6649994,58.71 14.6649994,61.005 C14.6649994,63.3 16.4799994,65.13 18.7299994,65.13 C20.9799994,65.13 22.7949994,63.3 22.7949994,61.005 C22.7949994,58.71 20.9799994,56.88 18.7299994,56.88 Z M29.3849995,55.995 L30.9899995,55.995 C31.6649995,55.995 32.6699995,56.04 33.4199995,56.55 C34.0049995,56.94 34.5149995,57.705 34.5149995,58.77 C34.5149995,60.3 33.5099995,61.425 31.9949995,61.53 L35.1749995,66 L33.8249995,66 L30.7799995,61.62 L30.4949995,61.62 L30.4949995,66 L29.3849995,66 L29.3849995,55.995 Z M30.4949995,57.045 L30.4949995,60.63 L31.1999995,60.63 C32.5799995,60.63 33.4049995,59.97 33.4049995,58.8 C33.4049995,58.245 33.2399995,57.69 32.6099995,57.33 C32.1599995,57.075 31.6499995,57.045 31.1699995,57.045 L30.4949995,57.045 Z M53.9199997,66 L52.7499997,63.18 L48.4899997,63.18 L47.2899997,66 L46.0599997,66 L50.6649997,55.515 L55.1499997,66 L53.9199997,66 Z M48.9249997,62.13 L52.3149997,62.13 L50.6349997,58.125 L48.9249997,62.13 Z M67.9849998,66 L66.8749998,66 L66.8749998,55.575 L74.6749998,63.75 L74.6749998,55.995 L75.7849998,55.995 L75.7849998,66.45 L67.9849998,58.275 L67.9849998,66 Z M86.9649999,55.995 L86.9649999,57.045 L82.8849999,57.045 L82.8849999,60.015 L86.8449999,60.015 L86.8449999,61.065 L82.8849999,61.065 L82.8849999,64.95 L86.9649999,64.95 L86.9649999,66 L81.7749999,66 L81.7749999,55.995 L86.9649999,55.995 Z M91.245,55.995 L92.475,55.995 L95.115,63.495 L98.25,55.485 L101.22,63.495 L104.145,55.995 L105.375,55.995 L101.175,66.525 L98.235,58.515 L95.085,66.525 L91.245,55.995 Z M123.79,66 L122.62,63.18 L118.36,63.18 L117.16,66 L115.93,66 L120.535,55.515 L125.02,66 L123.79,66 Z M118.795,62.13 L122.185,62.13 L120.505,58.125 L118.795,62.13 Z M137.175,56.82 L137.175,58.2 C136.86,57.885 136.38,57.51 135.87,57.27 C135.345,57.03 134.73,56.88 134.145,56.88 C131.835,56.88 130.125,58.74 130.125,61.05 C130.125,63.765 132.33,65.13 134.16,65.13 C134.835,65.13 135.495,64.935 136.02,64.665 C136.59,64.38 136.995,64.005 137.175,63.825 L137.175,65.205 C136.065,66 134.91,66.18 134.16,66.18 C131.19,66.18 128.985,63.93 128.985,61.035 C128.985,58.05 131.22,55.83 134.22,55.83 C134.82,55.83 135.975,55.905 137.175,56.82 Z M150.275,56.82 L150.275,58.2 C149.96,57.885 149.48,57.51 148.97,57.27 C148.445,57.03 147.83,56.88 147.245,56.88 C144.935,56.88 143.225,58.74 143.225,61.05 C143.225,63.765 145.43,65.13 147.26,65.13 C147.935,65.13 148.595,64.935 149.12,64.665 C149.69,64.38 150.095,64.005 150.275,63.825 L150.275,65.205 C149.165,66 148.01,66.18 147.26,66.18 C144.29,66.18 142.085,63.93 142.085,61.035 C142.085,58.05 144.32,55.83 147.32,55.83 C147.92,55.83 149.075,55.905 150.275,56.82 Z M160.39,66.18 C157.495,66.18 155.185,63.975 155.185,61.005 C155.185,58.02 157.51,55.83 160.39,55.83 C163.27,55.83 165.595,58.02 165.595,61.005 C165.595,63.975 163.285,66.18 160.39,66.18 Z M160.39,56.88 C158.14,56.88 156.325,58.71 156.325,61.005 C156.325,63.3 158.14,65.13 160.39,65.13 C162.64,65.13 164.455,63.3 164.455,61.005 C164.455,58.71 162.64,56.88 160.39,56.88 Z M172.155001,55.995 L172.155001,62.13 C172.155001,62.97 172.155001,63.885 172.950001,64.56 C173.355001,64.905 174.045001,65.13 174.600001,65.13 C175.155001,65.13 175.845001,64.905 176.250001,64.56 C177.045001,63.885 177.045001,62.97 177.045001,62.13 L177.045001,55.995 L178.155001,55.995 L178.155001,62.43 C178.155001,63.27 178.065001,64.08 177.525001,64.83 C176.925001,65.655 175.875001,66.18 174.600001,66.18 C173.325001,66.18 172.275001,65.655 171.675001,64.83 C171.135001,64.08 171.045001,63.27 171.045001,62.43 L171.045001,55.995 L172.155001,55.995 Z M185.255001,66 L184.145001,66 L184.145001,55.575 L191.945001,63.75 L191.945001,55.995 L193.055001,55.995 L193.055001,66.45 L185.255001,58.275 L185.255001,66 Z M203.935001,57.045 L201.505001,57.045 L201.505001,66 L200.395001,66 L200.395001,57.045 L197.965001,57.045 L197.965001,55.995 L203.935001,55.995 L203.935001,57.045 Z" id="FOR-A-NEW-ACCOUNT"></path>
        </g>
    </g>
</svg>