<?xml version="1.0" encoding="utf-8"?>
<!-- Generator: Adobe Illustrator 19.0.0, SVG Export Plug-In . SVG Version: 6.00 Build 0)  -->
<svg version="1.1" id="Layer_1" xmlns="http://www.w3.org/2000/svg" xmlns:xlink="http://www.w3.org/1999/xlink" x="0px" y="0px"
	 viewBox="0 0 886.4 436" enable-background="new 0 0 886.4 436" xml:space="preserve">
<g id="XMLID_19_">
	<g id="XMLID_3_">
		<path id="XMLID_9_" fill="#ffffff" d="M233.7,304.9c-13.5,3.9-26.8,7.1-39.9,9.6c-13.1,2.5-26.4,5.1-39.9,8
			c-3.5,0.7-9.2,1.9-17,3.5c-7.8,1.6-16.3,3.6-25.5,6.1c-9.2,2.5-18.6,5.5-28.2,9c-9.6,3.5-17.8,7.5-24.7,12
			c-6.9,4.4-11.9,9.4-14.9,14.9c-3,5.5-2.6,11.6,1.3,18.3c2.5,4.6,6.1,8.4,10.9,11.4c4.8,3,10,5.4,15.7,7.2
			c5.7,1.8,11.4,3.2,17.3,4.3c5.8,1.1,11.1,1.9,15.7,2.7c13.5,1.8,26.9,2.7,40.4,2.7c13.5,0,26.9-0.4,40.4-1.1
			c25.9-1.4,51.6-3.9,77.1-7.4c25.5-3.5,51-8,76.6-13.3c24.5-5,48.8-10.9,73.1-17.8c24.3-6.9,47.6-15.7,69.9-26.3
			c8.2-3.9,17.2-8.9,27.1-14.9c9.9-6,18.9-13,26.9-21s14.2-16.8,18.6-26.3c4.4-9.6,5.1-19.9,1.9-30.8c-2.8-11-9-19.9-18.6-26.9
			c-9.6-6.9-20.4-12.5-32.4-16.8c-12-4.3-24.4-7.6-37-10.1c-12.6-2.5-23.3-4.8-32.2-6.9c-17-3.9-34.1-7.6-51.3-11.2
			c-17.2-3.5-34.3-7.8-51.3-12.8l-21.8,6.4c-50.7,14.2-101.9,24.5-153.7,31.1c-51.8,6.6-103.9,10.2-156.3,10.9c-1.4,0-2-0.3-1.9-0.8
			c0.2-0.5,0.8-1.1,1.9-1.6s2.2-1,3.5-1.3c1.2-0.4,2.2-0.5,2.9-0.5c6,0,12.2,0,18.6,0c6.4,0,12.6-0.2,18.6-0.5
			c13.5-0.7,27-1.4,40.7-2.1c13.7-0.7,27.2-2,40.7-3.7c25.9-2.8,51.6-6.4,77.1-10.6c25.5-4.3,51-9.6,76.6-16l46.8-12.8
			c-6-2.1-12-4.3-17.8-6.4c-5.8-2.1-11.8-4.6-17.8-7.4c-3.9-1.8-8-3.9-12.2-6.4c-4.3-2.5-8.1-5.3-11.4-8.5
			c-3.4-3.2-6.1-6.8-8.2-10.9c-2.1-4.1-3.2-8.6-3.2-13.6c0.4-12.1,4.3-22.6,11.7-31.6c7.4-9,16.1-16.4,26.1-22.1
			c20.6-11.7,43.3-18.8,68.3-21.3c25-2.5,48.8-1.4,71.5,3.2c4.3,1.1,9,2.3,14.4,3.7c5.3,1.4,10.5,3.3,15.4,5.6
			c5,2.3,9.4,5.1,13.3,8.5c3.9,3.4,6.4,7.5,7.4,12.5c1.1,5.3,0.4,10.4-1.9,15.2c-2.3,4.8-5.4,9.2-9.3,13.3c-3.9,4.1-8.2,7.8-13,11.2
			c-4.8,3.4-9.1,6.1-13,8.2c-15.2,9.2-31.2,17.4-47.9,24.5c-16.7,7.1-33.5,13.5-50.5,19.1c14.9,3.2,30,6,45.2,8.5
			c15.2,2.5,30.1,5.7,44.7,9.6c9.6,2.5,20.4,5.3,32.4,8.5c12.1,3.2,23.8,7.3,35.4,12.2c11.5,5,22,11,31.4,18.1
			c9.4,7.1,16.2,15.8,20.5,26.1c4.6,11.3,5.2,22.2,1.9,32.7c-3.4,10.5-8.8,20.1-16.2,29c-7.4,8.9-16.1,16.8-26.1,23.9
			c-9.9,7.1-19,12.9-27.1,17.5c-21.3,12.4-43.4,22.6-66.5,30.6c-23,8-46.4,14.8-70.2,20.5c-30.8,7.1-61.9,12.2-93.3,15.4
			c-31.4,3.2-62.8,4.4-94.4,3.7c-3.9,0-10.5-0.4-19.9-1.1c-9.4-0.7-19.8-1.9-31.4-3.5c-11.5-1.6-22.9-3.8-34.3-6.6
			c-11.3-2.8-20.9-6.6-28.7-11.2c-7.8-4.6-12.8-10.2-14.9-16.8c-2.1-6.6,0.2-14.3,6.9-23.1c3.9-5,8.7-9.3,14.4-13
			c5.7-3.7,11.7-7,18.1-9.8c6.4-2.8,12.9-5.3,19.7-7.4c6.7-2.1,12.9-4.3,18.6-6.4c11-3.2,21.9-6.3,32.7-9.3
			c10.8-3,21.5-5.9,32.2-8.8c10.3-2.8,20.6-5.6,30.8-8.2c10.3-2.7,20.6-5.6,30.8-8.8c4.3-1.8,8.5-3.4,12.8-4.8
			c4.3-1.4,8.7-2.8,13.3-4.3c0.4,0,1.6-0.4,3.7-1.1c2.1-0.7,4.4-1.2,6.9-1.3c2.5-0.2,4.5-0.2,6.1,0c1.6,0.2,1.9,1.1,0.8,2.9
			c-2.1,3.5-5.1,6.6-9,9.3c-3.9,2.7-8.2,5-13,6.9c-4.8,1.9-9.7,3.6-14.9,5.1C243.2,302.6,238.3,303.8,233.7,304.9z M422.5,132.1
			c9.2-4.6,18.3-9.7,27.1-15.2c8.9-5.5,16.7-12.3,23.4-20.5c4.6-5.7,6.9-10.8,6.9-15.4c0-4.6-1.5-8.7-4.5-12.2c-3-3.5-7-6.6-12-9
			c-5-2.5-10.1-4.4-15.4-5.8c-11-2.8-22.6-4.7-34.8-5.6c-12.2-0.9-24.5-0.9-36.7,0c-12.2,0.9-24.3,2.7-36.2,5.3
			c-11.9,2.7-23.1,6.1-33.8,10.4c-9.2,3.5-18,8.4-26.3,14.6c-8.3,6.2-14.1,14.3-17.3,24.2c-3.9,11.3-3,20.6,2.7,27.9
			c5.7,7.3,13.7,13,23.9,17.3c16.3,7.1,34,12.6,53.2,16.5c13.8-4.3,27.4-9.1,40.7-14.6C396.7,144.4,409.7,138.5,422.5,132.1z"/>
	</g>
	<g id="XMLID_1_">
		<path id="XMLID_4_" fill="#ffffff" d="M423.5,163.5c-11.9,1.8-24.3,3.1-37.2,3.8c-12.9,0.7-26,0.6-39.1-0.3
			c-13.1-0.9-25.9-3-38.3-6.2c-12.4-3.2-23.8-8.1-34.2-14.6c-8.3-5-13.9-10.5-17-16.4c-3.1-5.9-4.3-11.9-3.8-17.8
			c0.5-5.9,2.6-11.8,6.2-17.5c3.6-5.7,8-11.2,13.2-16.4c5.2-5.2,10.9-10.1,17-14.6c6.1-4.5,11.9-8.2,17.2-11
			c21.2-11.1,43.3-19.7,66.3-25.6c23-5.9,46.3-10.3,70.1-13.2c20.5-2.5,42-4.3,64.7-5.4c22.6-1.1,45.3-0.3,67.9,2.4
			s44.4,7.6,65.2,14.8c20.8,7.2,39.5,18,56.1,32.3c14.4,12.6,24.1,25.7,29.1,39.3c5,13.7,6.7,27.6,5.1,41.8
			c-1.6,14.2-6,28.3-13.2,42.3c-7.2,14-15.8,27.3-25.9,39.9c-10.1,12.6-21,24.3-32.9,35c-11.9,10.8-23.4,20.1-34.5,28
			c-13.7,10.1-27.9,19.1-42.8,27.2c-14.9,8.1-30.5,15.2-46.6,21.3l8.6,3.2l93.8,32.9c24.8,8.6,49.8,16.8,74.9,24.5
			c25.1,7.7,50.7,13.6,76.5,17.5c12.6,1.8,25.1,3.1,37.7,4c12.6,0.9,25.1,0.3,37.7-1.9c2.9-0.7,5.9-1.3,9.2-1.9
			c3.2-0.5,6.3-1.3,9.2-2.4c1.1-0.4,1.9,0,2.4,1.1c0.5,1.1,0.3,2-0.8,2.7c-5,2.9-10.4,5.3-16.2,7.3c-5.8,2-11.7,3.5-17.8,4.6
			c-11.9,2.2-24,3.1-36.4,3c-12.4-0.2-24.7-1.3-36.9-3.5c-12.2-2.2-24.4-4.8-36.6-8.1c-12.2-3.2-24.1-6.7-35.6-10.2
			c-17.2-5.4-34.1-11.2-50.7-17.5c-16.5-6.3-33.2-12.8-50.1-19.7c-13.3-5-26.5-10.3-39.6-15.9c-13.1-5.6-26.3-10.9-39.6-15.9
			c-10.1,3.6-20.7,6.5-31.8,8.6c-4.3,1.1-8.5,2-12.7,2.7c-4.1,0.7-8.4,1.3-12.7,1.6c0.7,7.2,1.2,14.1,1.3,20.7
			c0.2,6.7,0.4,13.4,0.8,20.2c0.4,2.9,0.4,5,0,6.5c-0.4,1.4-0.9,2.5-1.6,3.2c-0.7,0.7-1.8,0.4-3.2-1.1c-1.1-1.1-1.4-3.1-1.1-5.9
			c0.4-2.9,0.5-5,0.5-6.5c0-6.1-0.1-12.2-0.3-18.3c-0.2-6.1-0.5-12.2-0.8-18.3c-14.4,1.1-27.8,0.4-40.4-2.2c-3.2-0.4-7.6-1.7-13.2-4
			c-5.6-2.3-10.2-5.1-14-8.4c-3.8-3.2-5.9-6.7-6.5-10.5c-0.5-3.8,2.4-7.6,8.9-11.6c9-5.4,19.1-7.7,30.5-7
			c11.3,0.7,21.8,2.3,31.5,4.9L451,201.8c-1.8-14-2.9-28-3.2-42c-4,0.7-8,1.3-12.1,1.9C431.5,162.2,427.4,162.8,423.5,163.5z
			 M461.2,143.1c0,1.1-0.1,2.2-0.3,3.5c-0.2,1.3-0.3,2.4-0.3,3.5c3.2-0.7,6.4-1.5,9.4-2.4c3-0.9,6-1.9,8.9-3
			c16.5-4.7,32.7-10.6,48.5-17.8c1.1-0.4,3.2-1.4,6.5-3.2c3.2-1.8,6.6-3.3,10-4.6c3.4-1.3,6.4-2.1,8.9-2.4c2.5-0.4,3.6,0.5,3.2,2.7
			c-2.2,2.2-5.6,4.6-10.2,7.3c-4.7,2.7-9.7,5.2-15.1,7.5c-5.4,2.3-11,4.7-17,7c-5.9,2.3-11.2,4.2-15.9,5.7c-6.1,2.2-12.3,4-18.6,5.7
			c-6.3,1.6-12.5,3.1-18.6,4.6c-0.7,29.1-0.2,58,1.6,86.8c0.4,11.5,0.8,22.9,1.3,34.2c0.5,11.3,1.2,22.7,1.9,34.2h1.6
			c11.1,2.5,22.1,5.4,32.9,8.6c10.8,3.2,21.4,6.8,31.8,10.8c5.7-2.2,11.3-4.4,16.7-6.7c5.4-2.3,10.6-4.8,15.6-7.3
			c21.6-10.4,42.3-22.7,62.2-36.9c19.9-14.2,38-30.3,54.2-48.2c7.5-8.6,14.8-18,21.8-28c7-10.1,12.7-20.7,17.2-31.8
			c4.5-11.1,7.4-22.5,8.6-34.2c1.3-11.7-0.3-23.4-4.6-35.3c-4.3-11.5-10.5-21.5-18.6-29.9c-8.1-8.4-17.3-15.6-27.8-21.6
			c-10.4-5.9-21.5-10.8-33.1-14.6c-11.7-3.8-23.1-6.7-34.2-8.9c-25.9-5-51.9-7.5-78.1-7.5c-26.2,0-52.3,1.4-78.1,4.3
			c-25.2,2.9-50.5,6.7-76,11.6c-25.5,4.9-49.6,13-72.2,24.5C300.1,64,293.7,68,286.3,73c-7.4,5-13.7,10.7-18.9,17
			c-5.2,6.3-8.6,13-10.2,20.2c-1.6,7.2,0.4,14.4,6.2,21.6c5.4,6.8,12.1,12.2,20.2,16.2c8.1,4,16.6,7,25.6,9.2c9,2.2,18.1,3.5,27.5,4
			c9.3,0.5,18,0.8,25.9,0.8c14.4,0.4,28.6-0.3,42.8-1.9c14.2-1.6,28.1-3.9,41.8-6.7c-0.4-6.8-0.5-13.7-0.3-20.5
			c0.2-6.8,0.6-13.7,1.3-20.5c0.7-7.2,1.8-14.7,3.2-22.6c1.4-7.9,4.7-14.6,9.7-19.9c1.4-1.1,3.4-2.2,5.9-3.5c2.5-1.3,3.4,0.1,2.7,4
			c-2.5,4-4.4,8.9-5.7,14.8c-1.3,5.9-2.1,12.3-2.4,19.1c-0.4,6.8-0.5,13.7-0.5,20.5C461.2,131.6,461.2,137.7,461.2,143.1z
			 M405.7,314.4c-7.2,2.9-10.8,5.9-10.8,9.2s1.6,6.3,4.9,9.2c3.2,2.9,7.5,5.5,12.7,7.8c5.2,2.3,9.4,3.7,12.7,4
			c12.2,2.5,25.1,3.2,38.8,2.2c-0.4-5-0.6-10.1-0.8-15.4c-0.2-5.2-0.6-10.3-1.3-15.4c-9.3-2.5-18.9-4.2-28.6-5.1
			C423.5,310,414.3,311.2,405.7,314.4z M472,318.8l-5.9-1.6l1.6,22.1c0,1.4,0.1,2.7,0.3,3.8c0.2,1.1,0.3,2.3,0.3,3.8
			c9.3-0.7,18.4-2.2,27.2-4.3c8.8-2.2,17.5-4.7,26.1-7.5C506.1,329.2,489.6,323.8,472,318.8z"/>
	</g>
</g>
</svg>
