<?xml version="1.0" encoding="UTF-8"?>
<svg width="26px" height="36px" viewBox="0 0 26 36" version="1.1" xmlns="http://www.w3.org/2000/svg" xmlns:xlink="http://www.w3.org/1999/xlink">
    <!-- Generator: Sketch 49.3 (51167) - http://www.bohemiancoding.com/sketch -->
    <title>pause</title>
    <desc>Created with Sketch.</desc>
    <defs></defs>
    <g id="Page-1" stroke="none" stroke-width="1" fill="none" fill-rule="evenodd">
        <g id="Artboard" transform="translate(-206.000000, -524.000000)" fill="#000000">
            <path d="M209.5,524 C211.432997,524 213,525.567003 213,527.5 L213,556.5 C213,558.432997 211.432997,560 209.5,560 C207.567003,560 206,558.432997 206,556.5 L206,527.5 C206,525.567003 207.567003,524 209.5,524 Z M228.5,524 C230.432997,524 232,525.567003 232,527.5 L232,556.5 C232,558.432997 230.432997,560 228.5,560 C226.567003,560 225,558.432997 225,556.5 L225,527.5 C225,525.567003 226.567003,524 228.5,524 Z" id="pause"></path>
        </g>
    </g>
</svg>