<?xml version="1.0" encoding="UTF-8"?>
<svg width="27px" height="35px" viewBox="0 0 27 35" version="1.1" xmlns="http://www.w3.org/2000/svg" xmlns:xlink="http://www.w3.org/1999/xlink">
    <!-- Generator: Sketch 49.3 (51167) - http://www.bohemiancoding.com/sketch -->
    <title>plays</title>
    <desc>Created with Sketch.</desc>
    <defs></defs>
    <g id="Page-1" stroke="none" stroke-width="1" fill="none" fill-rule="evenodd">
        <g id="Artboard" transform="translate(-141.000000, -524.000000)" fill="#000000" fill-rule="nonzero">
            <g id="Group" transform="translate(141.000000, 524.000000)">
                <path d="M26.5720682,17.5159497 C26.5720716,17.5169036 26.5720733,17.5178577 26.5720733,17.518812 C26.5720733,17.793197 26.4332127,18.0492341 26.2017786,18.2051916 L1.34403261,34.885133 C1.08088337,35.0611063 0.739732233,35.0794543 0.458582555,34.9368408 C0.176575713,34.7925593 0,34.5090003 0,34.1987534 L0,18.1994682 L0,0.833147235 C0,0.522900325 0.176575713,0.239341322 0.458582555,0.0950598293 C0.739732233,-0.0475536693 1.08088337,-0.0292057338 1.34403261,0.146767648 L26.2017786,16.826709 C26.4332127,16.9826665 26.5720733,17.2387036 26.5720733,17.5130886 C26.5720733,17.5140429 26.5720716,17.514997 26.5720682,17.5159509 Z" id="plays"></path>
            </g>
        </g>
    </g>
</svg>