<?xml version="1.0" encoding="UTF-8"?>
<svg width="299px" height="43px" viewBox="0 0 299 43" version="1.1" xmlns="http://www.w3.org/2000/svg" xmlns:xlink="http://www.w3.org/1999/xlink">
    <!-- Generator: Sketch 49.3 (51167) - http://www.bohemiancoding.com/sketch -->
    <title>equalizer group</title>
    <desc>Created with Sketch.</desc>
    <defs>
        <linearGradient x1="0.25781251%" y1="49.7500002%" x2="99.8487728%" y2="49.7500002%" id="linearGradient-1">
            <stop stop-color="#F16625" offset="0%"></stop>
            <stop stop-color="#EC1577" offset="100%"></stop>
        </linearGradient>
    </defs>
    <g id="Page-1" stroke="none" stroke-width="1" fill="none" fill-rule="evenodd">
        <g id="Artboard" transform="translate(-441.000000, -373.000000)">
            <g id="equalizer-group" transform="translate(441.000000, 373.000000)">
                <g id="EQUALIZER" transform="translate(149.500000, 14.000000) scale(-1, 1) rotate(-180.000000) translate(-149.500000, -14.000000) ">
                    <g id="2" transform="translate(132.000000, 0.000000)" fill="#535353">
                        <path d="M164,0 L167,0 L167,20.3636364 L164,20.3636364 L164,0 Z M31.0144928,0 L34.0144928,0 L34.0144928,17.8181818 L31.0144928,17.8181818 L31.0144928,0 Z M95.3623188,0 L98.3623188,0 L98.3623188,26.7272727 L95.3623188,26.7272727 L95.3623188,0 Z M129.681159,0 L132.681159,0 L132.681159,22.9090909 L129.681159,22.9090909 L129.681159,0 Z M146.84058,0 L149.84058,0 L149.84058,14 L146.84058,14 L146.84058,0 Z M13.8550725,0 L16.8550725,0 L16.8550725,25.4545455 L13.8550725,25.4545455 L13.8550725,0 Z M78.2028986,0 L81.2028986,0 L81.2028986,17.8181818 L78.2028986,17.8181818 L78.2028986,0 Z M112.521739,0 L115.521739,0 L115.521739,10.1818182 L112.521739,10.1818182 L112.521739,0 Z M48.173913,0 L51.173913,0 L51.173913,20.3636364 L48.173913,20.3636364 L48.173913,0 Z M155.42029,0 L158.42029,0 L158.42029,17.8181818 L155.42029,17.8181818 L155.42029,0 Z M22.4347826,0 L25.4347826,0 L25.4347826,19.0909091 L22.4347826,19.0909091 L22.4347826,0 Z M86.7826087,0 L89.7826087,0 L89.7826087,22.9090909 L86.7826087,22.9090909 L86.7826087,0 Z M121.101449,0 L124.101449,0 L124.101449,17.8181818 L121.101449,17.8181818 L121.101449,0 Z M56.7536232,0 L59.7536232,0 L59.7536232,20.3636364 L56.7536232,20.3636364 L56.7536232,0 Z M138.26087,0 L141.26087,0 L141.26087,17.8181818 L138.26087,17.8181818 L138.26087,0 Z M134,0 L137,0 L137,5.54545455 L134,5.54545455 L134,0 Z M5.27536232,0 L8.27536232,0 L8.27536232,16.5454545 L5.27536232,16.5454545 L5.27536232,0 Z M69.6231884,0 L72.6231884,0 L72.6231884,8.90909091 L69.6231884,8.90909091 L69.6231884,0 Z M103.942029,0 L106.942029,0 L106.942029,22.9090909 L103.942029,22.9090909 L103.942029,0 Z M39.5942029,0 L42.5942029,0 L42.5942029,19.0909091 L39.5942029,19.0909091 L39.5942029,0 Z M159.710145,0 L162.710145,0 L162.710145,24.1818182 L159.710145,24.1818182 L159.710145,0 Z M26.7246377,0 L29.7246377,0 L29.7246377,15.2727273 L26.7246377,15.2727273 L26.7246377,0 Z M91.0724638,0 L94.0724638,0 L94.0724638,20.3636364 L91.0724638,20.3636364 L91.0724638,0 Z M125.391304,0 L128.391304,0 L128.391304,20.3636364 L125.391304,20.3636364 L125.391304,0 Z M61.0434783,0 L64.0434783,0 L64.0434783,17.8181818 L61.0434783,17.8181818 L61.0434783,0 Z M142.550725,0 L145.550725,0 L145.550725,7.63636364 L142.550725,7.63636364 L142.550725,0 Z M9.56521739,0 L12.5652174,0 L12.5652174,24.1818182 L9.56521739,24.1818182 L9.56521739,0 Z M73.9130435,0 L76.9130435,0 L76.9130435,21.6363636 L73.9130435,21.6363636 L73.9130435,0 Z M108.231884,0 L111.231884,0 L111.231884,19.0909091 L108.231884,19.0909091 L108.231884,0 Z M43.884058,0 L46.884058,0 L46.884058,14 L43.884058,14 L43.884058,0 Z M151.130435,0 L154.130435,0 L154.130435,10.1818182 L151.130435,10.1818182 L151.130435,0 Z M18.1449275,0 L21.1449275,0 L21.1449275,11.4545455 L18.1449275,11.4545455 L18.1449275,0 Z M82.4927536,0 L85.4927536,0 L85.4927536,25.4545455 L82.4927536,25.4545455 L82.4927536,0 Z M116.811594,0 L119.811594,0 L119.811594,14 L116.811594,14 L116.811594,0 Z M52.4637681,0 L55.4637681,0 L55.4637681,24.1818182 L52.4637681,24.1818182 L52.4637681,0 Z M0.985507246,0 L3.98550725,0 L3.98550725,14 L0.985507246,14 L0.985507246,0 Z M65.3333333,0 L68.3333333,0 L68.3333333,15.2727273 L65.3333333,15.2727273 L65.3333333,0 Z M99.6521739,0 L102.652174,0 L102.652174,17.8181818 L99.6521739,17.8181818 L99.6521739,0 Z M35.3043478,0 L38.3043478,0 L38.3043478,21.6363636 L35.3043478,21.6363636 L35.3043478,0 Z" id="Combined-Shape"></path>
                    </g>
                    <g id="1" fill="url(#linearGradient-1)">
                        <path d="M98.6666667,0 L101.666667,0 L101.666667,20.3636364 L98.6666667,20.3636364 L98.6666667,0 Z M68.6376812,0 L71.6376812,0 L71.6376812,19.0909091 L68.6376812,19.0909091 L68.6376812,0 Z M81.5072464,0 L84.5072464,0 L84.5072464,16.5454545 L81.5072464,16.5454545 L81.5072464,0 Z M115.826087,0 L118.826087,0 L118.826087,20.3636364 L115.826087,20.3636364 L115.826087,0 Z M51.4782609,0 L54.4782609,0 L54.4782609,16.5454545 L51.4782609,16.5454545 L51.4782609,0 Z M12.8695652,0 L15.8695652,0 L15.8695652,14 L12.8695652,14 L12.8695652,0 Z M90.0869565,0 L93.0869565,0 L93.0869565,21.6363636 L90.0869565,21.6363636 L90.0869565,0 Z M124.405797,0 L127.405797,0 L127.405797,20.3636364 L124.405797,20.3636364 L124.405797,0 Z M60.057971,0 L63.057971,0 L63.057971,14 L60.057971,14 L60.057971,0 Z M21.4492754,0 L24.4492754,0 L24.4492754,24.1818182 L21.4492754,24.1818182 L21.4492754,0 Z M72.9275362,0 L75.9275362,0 L75.9275362,25.4545455 L72.9275362,25.4545455 L72.9275362,0 Z M34.3188406,0 L37.3188406,0 L37.3188406,14 L34.3188406,14 L34.3188406,0 Z M107.246377,0 L110.246377,0 L110.246377,22.9090909 L107.246377,22.9090909 L107.246377,0 Z M42.8985507,0 L45.8985507,0 L45.8985507,16.5454545 L42.8985507,16.5454545 L42.8985507,0 Z M4.28985507,0 L7.28985507,0 L7.28985507,5.09090909 L4.28985507,5.09090909 L4.28985507,0 Z M94.3768116,0 L97.3768116,0 L97.3768116,16.5454545 L94.3768116,16.5454545 L94.3768116,0 Z M128.695652,0 L131.695652,0 L131.695652,19.0909091 L128.695652,19.0909091 L128.695652,0 Z M64.3478261,0 L67.3478261,0 L67.3478261,8.90909091 L64.3478261,8.90909091 L64.3478261,0 Z M25.7391304,0 L28.7391304,0 L28.7391304,19.0909091 L25.7391304,19.0909091 L25.7391304,0 Z M77.2173913,0 L80.2173913,0 L80.2173913,19.0909091 L77.2173913,19.0909091 L77.2173913,0 Z M111.536232,0 L114.536232,0 L114.536232,14 L111.536232,14 L111.536232,0 Z M47.1884058,0 L50.1884058,0 L50.1884058,11.4545455 L47.1884058,11.4545455 L47.1884058,0 Z M8.57971014,0 L11.5797101,0 L11.5797101,7.63636364 L8.57971014,7.63636364 L8.57971014,0 Z M85.7971014,0 L88.7971014,0 L88.7971014,11.4545455 L85.7971014,11.4545455 L85.7971014,0 Z M120.115942,0 L123.115942,0 L123.115942,25.4545455 L120.115942,25.4545455 L120.115942,0 Z M55.7681159,0 L58.7681159,0 L58.7681159,21.6363636 L55.7681159,21.6363636 L55.7681159,0 Z M17.1594203,0 L20.1594203,0 L20.1594203,28 L17.1594203,28 L17.1594203,0 Z M30.0289855,0 L33.0289855,0 L33.0289855,21.6363636 L30.0289855,21.6363636 L30.0289855,0 Z M102.956522,0 L105.956522,0 L105.956522,19.0909091 L102.956522,19.0909091 L102.956522,0 Z M38.6086957,0 L41.6086957,0 L41.6086957,10.1818182 L38.6086957,10.1818182 L38.6086957,0 Z M0,0 L3,0 L3,6.36363636 L0,6.36363636 L0,0 Z" id="Combined-Shape"></path>
                    </g>
                </g>
                <g id="EQUALIZER-Copy" opacity="0.34595788" transform="translate(149.500000, 36.000000) scale(-1, -1) rotate(-180.000000) translate(-149.500000, -36.000000) translate(0.000000, 29.000000)">
                    <g id="2" transform="translate(132.000000, 0.000000)" fill="#535353">
                        <path d="M164,0 L167,0 L167,10.1818182 L164,10.1818182 L164,0 Z M31.0144928,0 L34.0144928,0 L34.0144928,8.90909091 L31.0144928,8.90909091 L31.0144928,0 Z M95.3623188,0 L98.3623188,0 L98.3623188,13.3636364 L95.3623188,13.3636364 L95.3623188,0 Z M129.681159,0 L132.681159,0 L132.681159,11.4545455 L129.681159,11.4545455 L129.681159,0 Z M146.84058,0 L149.84058,0 L149.84058,7 L146.84058,7 L146.84058,0 Z M13.8550725,0 L16.8550725,0 L16.8550725,12.7272727 L13.8550725,12.7272727 L13.8550725,0 Z M78.2028986,0 L81.2028986,0 L81.2028986,8.90909091 L78.2028986,8.90909091 L78.2028986,0 Z M112.521739,0 L115.521739,0 L115.521739,5.09090909 L112.521739,5.09090909 L112.521739,0 Z M48.173913,0 L51.173913,0 L51.173913,10.1818182 L48.173913,10.1818182 L48.173913,0 Z M155.42029,0 L158.42029,0 L158.42029,8.90909091 L155.42029,8.90909091 L155.42029,0 Z M22.4347826,0 L25.4347826,0 L25.4347826,9.54545455 L22.4347826,9.54545455 L22.4347826,0 Z M86.7826087,0 L89.7826087,0 L89.7826087,11.4545455 L86.7826087,11.4545455 L86.7826087,0 Z M121.101449,0 L124.101449,0 L124.101449,8.90909091 L121.101449,8.90909091 L121.101449,0 Z M56.7536232,0 L59.7536232,0 L59.7536232,10.1818182 L56.7536232,10.1818182 L56.7536232,0 Z M138.26087,0 L141.26087,0 L141.26087,8.90909091 L138.26087,8.90909091 L138.26087,0 Z M134,0 L137,0 L137,2.77272727 L134,2.77272727 L134,0 Z M5.27536232,0 L8.27536232,0 L8.27536232,8.27272727 L5.27536232,8.27272727 L5.27536232,0 Z M69.6231884,0 L72.6231884,0 L72.6231884,4.45454545 L69.6231884,4.45454545 L69.6231884,0 Z M103.942029,0 L106.942029,0 L106.942029,11.4545455 L103.942029,11.4545455 L103.942029,0 Z M39.5942029,0 L42.5942029,0 L42.5942029,9.54545455 L39.5942029,9.54545455 L39.5942029,0 Z M159.710145,0 L162.710145,0 L162.710145,12.0909091 L159.710145,12.0909091 L159.710145,0 Z M26.7246377,0 L29.7246377,0 L29.7246377,7.63636364 L26.7246377,7.63636364 L26.7246377,0 Z M91.0724638,0 L94.0724638,0 L94.0724638,10.1818182 L91.0724638,10.1818182 L91.0724638,0 Z M125.391304,0 L128.391304,0 L128.391304,10.1818182 L125.391304,10.1818182 L125.391304,0 Z M61.0434783,0 L64.0434783,0 L64.0434783,8.90909091 L61.0434783,8.90909091 L61.0434783,0 Z M142.550725,0 L145.550725,0 L145.550725,3.81818182 L142.550725,3.81818182 L142.550725,0 Z M9.56521739,0 L12.5652174,0 L12.5652174,12.0909091 L9.56521739,12.0909091 L9.56521739,0 Z M73.9130435,0 L76.9130435,0 L76.9130435,10.8181818 L73.9130435,10.8181818 L73.9130435,0 Z M108.231884,0 L111.231884,0 L111.231884,9.54545455 L108.231884,9.54545455 L108.231884,0 Z M43.884058,0 L46.884058,0 L46.884058,7 L43.884058,7 L43.884058,0 Z M151.130435,0 L154.130435,0 L154.130435,5.09090909 L151.130435,5.09090909 L151.130435,0 Z M18.1449275,0 L21.1449275,0 L21.1449275,5.72727273 L18.1449275,5.72727273 L18.1449275,0 Z M82.4927536,0 L85.4927536,0 L85.4927536,12.7272727 L82.4927536,12.7272727 L82.4927536,0 Z M116.811594,0 L119.811594,0 L119.811594,7 L116.811594,7 L116.811594,0 Z M52.4637681,0 L55.4637681,0 L55.4637681,12.0909091 L52.4637681,12.0909091 L52.4637681,0 Z M0.985507246,0 L3.98550725,0 L3.98550725,7 L0.985507246,7 L0.985507246,0 Z M65.3333333,0 L68.3333333,0 L68.3333333,7.63636364 L65.3333333,7.63636364 L65.3333333,0 Z M99.6521739,0 L102.652174,0 L102.652174,8.90909091 L99.6521739,8.90909091 L99.6521739,0 Z M35.3043478,0 L38.3043478,0 L38.3043478,10.8181818 L35.3043478,10.8181818 L35.3043478,0 Z" id="Combined-Shape"></path>
                    </g>
                    <g id="1" fill="url(#linearGradient-1)">
                        <path d="M98.6666667,0 L101.666667,0 L101.666667,10.1818182 L98.6666667,10.1818182 L98.6666667,0 Z M68.6376812,0 L71.6376812,0 L71.6376812,9.54545455 L68.6376812,9.54545455 L68.6376812,0 Z M81.5072464,0 L84.5072464,0 L84.5072464,8.27272727 L81.5072464,8.27272727 L81.5072464,0 Z M115.826087,0 L118.826087,0 L118.826087,10.1818182 L115.826087,10.1818182 L115.826087,0 Z M51.4782609,0 L54.4782609,0 L54.4782609,8.27272727 L51.4782609,8.27272727 L51.4782609,0 Z M12.8695652,0 L15.8695652,0 L15.8695652,7 L12.8695652,7 L12.8695652,0 Z M90.0869565,0 L93.0869565,0 L93.0869565,10.8181818 L90.0869565,10.8181818 L90.0869565,0 Z M124.405797,0 L127.405797,0 L127.405797,10.1818182 L124.405797,10.1818182 L124.405797,0 Z M60.057971,0 L63.057971,0 L63.057971,7 L60.057971,7 L60.057971,0 Z M21.4492754,0 L24.4492754,0 L24.4492754,12.0909091 L21.4492754,12.0909091 L21.4492754,0 Z M72.9275362,0 L75.9275362,0 L75.9275362,12.7272727 L72.9275362,12.7272727 L72.9275362,0 Z M34.3188406,0 L37.3188406,0 L37.3188406,7 L34.3188406,7 L34.3188406,0 Z M107.246377,0 L110.246377,0 L110.246377,11.4545455 L107.246377,11.4545455 L107.246377,0 Z M42.8985507,0 L45.8985507,0 L45.8985507,8.27272727 L42.8985507,8.27272727 L42.8985507,0 Z M4.28985507,0 L7.28985507,0 L7.28985507,2.54545455 L4.28985507,2.54545455 L4.28985507,0 Z M94.3768116,0 L97.3768116,0 L97.3768116,8.27272727 L94.3768116,8.27272727 L94.3768116,0 Z M128.695652,0 L131.695652,0 L131.695652,9.54545455 L128.695652,9.54545455 L128.695652,0 Z M64.3478261,0 L67.3478261,0 L67.3478261,4.45454545 L64.3478261,4.45454545 L64.3478261,0 Z M25.7391304,0 L28.7391304,0 L28.7391304,9.54545455 L25.7391304,9.54545455 L25.7391304,0 Z M77.2173913,0 L80.2173913,0 L80.2173913,9.54545455 L77.2173913,9.54545455 L77.2173913,0 Z M111.536232,0 L114.536232,0 L114.536232,7 L111.536232,7 L111.536232,0 Z M47.1884058,0 L50.1884058,0 L50.1884058,5.72727273 L47.1884058,5.72727273 L47.1884058,0 Z M8.57971014,0 L11.5797101,0 L11.5797101,3.81818182 L8.57971014,3.81818182 L8.57971014,0 Z M85.7971014,0 L88.7971014,0 L88.7971014,5.72727273 L85.7971014,5.72727273 L85.7971014,0 Z M120.115942,0 L123.115942,0 L123.115942,12.7272727 L120.115942,12.7272727 L120.115942,0 Z M55.7681159,0 L58.7681159,0 L58.7681159,10.8181818 L55.7681159,10.8181818 L55.7681159,0 Z M17.1594203,0 L20.1594203,0 L20.1594203,14 L17.1594203,14 L17.1594203,0 Z M30.0289855,0 L33.0289855,0 L33.0289855,10.8181818 L30.0289855,10.8181818 L30.0289855,0 Z M102.956522,0 L105.956522,0 L105.956522,9.54545455 L102.956522,9.54545455 L102.956522,0 Z M38.6086957,0 L41.6086957,0 L41.6086957,5.09090909 L38.6086957,5.09090909 L38.6086957,0 Z M0,0 L3,0 L3,3.18181818 L0,3.18181818 L0,0 Z" id="Combined-Shape"></path>
                    </g>
                </g>
            </g>
        </g>
    </g>
</svg>