<?xml version="1.0" encoding="UTF-8"?>
<svg width="18px" height="13px" viewBox="0 0 18 13" version="1.1" xmlns="http://www.w3.org/2000/svg" xmlns:xlink="http://www.w3.org/1999/xlink">
    <!-- Generator: Sketch 49.3 (51167) - http://www.bohemiancoding.com/sketch -->
    <title>fast</title>
    <desc>Created with Sketch.</desc>
    <defs></defs>
    <g id="Page-1" stroke="none" stroke-width="1" fill="none" fill-rule="evenodd">
        <g id="Artboard" transform="translate(-274.000000, -404.000000)" fill="#FFFFFF" fill-rule="nonzero">
            <path d="M291.865789,410.234428 L283.339474,404.059386 C283.242842,403.989186 283.117474,403.980735 283.012316,404.036636 C282.907789,404.092211 282.842105,404.203687 282.842105,404.324913 L282.842105,410.102478 L274.497368,404.062961 C274.401053,403.993736 274.275368,403.984635 274.170211,404.040536 C274.065684,404.096436 274,404.207912 274,404.329138 L274,416.671098 C274,416.792324 274.065684,416.903799 274.170211,416.9597 C274.216316,416.98375 274.266211,416.995775 274.315789,416.995775 C274.379579,416.995775 274.443053,416.975625 274.497368,416.936625 L282.842105,410.897433 L282.842105,416.674998 C282.842105,416.796224 282.907789,416.907699 283.012316,416.9636 C283.058421,416.987975 283.108316,417 283.157895,417 C283.221684,417 283.285474,416.97985 283.339474,416.940525 L291.865789,410.765482 C291.950105,410.705032 292,410.605581 292,410.499955 C292,410.39433 291.950105,410.294879 291.865789,410.234428 Z" id="fast"></path>
        </g>
    </g>
</svg>