<?xml version="1.0" encoding="UTF-8"?>
<svg width="14px" height="15px" viewBox="0 0 14 15" version="1.1" xmlns="http://www.w3.org/2000/svg" xmlns:xlink="http://www.w3.org/1999/xlink">
    <!-- Generator: Sketch 49.3 (51167) - http://www.bohemiancoding.com/sketch -->
    <title>loop</title>
    <desc>Created with Sketch.</desc>
    <defs></defs>
    <g id="Page-1" stroke="none" stroke-width="1" fill="none" fill-rule="evenodd" fill-opacity="0.35">
        <g id="Artboard" transform="translate(-91.000000, -403.000000)" fill="#FFFFFF" fill-rule="nonzero">
            <path d="M102.836526,415.146834 C100.41176,417.696208 96.3794858,417.797229 93.8301168,415.372467 C91.2807531,412.94771 91.1797408,408.915408 93.604484,406.366057 C95.9503499,403.899637 99.800899,403.724853 102.357489,405.911823 L102.357489,404.483379 C102.357489,404.133569 102.641058,403.85 102.990868,403.85 C103.340678,403.85 103.624247,404.133569 103.624247,404.483379 L103.624247,407.383577 C103.624284,407.656305 103.449749,407.898449 103.191044,407.98461 L100.290538,408.951426 C99.9585782,409.061845 99.6000448,408.882274 99.4895222,408.550187 C99.379116,408.218263 99.5586388,407.859699 99.8904928,407.749279 L101.807001,407.110739 C100.625698,405.931838 98.9426597,405.392002 97.2878609,405.673101 C94.4718512,406.151474 92.5768002,408.822099 93.0551678,411.63811 C93.5335381,414.454136 96.2041536,416.349172 99.0201759,415.870803 C101.836203,415.392432 103.731238,412.721817 103.253077,409.906991 C103.196068,409.550258 103.431403,409.225541 103.776833,409.170431 C104.122042,409.115356 104.446558,409.350344 104.501987,409.6954 C104.836103,411.6734 104.219032,413.693244 102.836526,415.146834 Z" id="loop"></path>
        </g>
    </g>
</svg>