<?xml version="1.0" encoding="UTF-8"?>
<svg width="26px" height="37px" viewBox="0 0 26 37" version="1.1" xmlns="http://www.w3.org/2000/svg" xmlns:xlink="http://www.w3.org/1999/xlink">
    <!-- Generator: Sketch 49.3 (51167) - http://www.bohemiancoding.com/sketch -->
    <title>pause</title>
    <desc>Created with Sketch.</desc>
    <defs></defs>
    <g id="Page-1" stroke="none" stroke-width="1" fill="none" fill-rule="evenodd">
        <g id="Artboard" transform="translate(-206.000000, -528.000000)" fill="#FFFFFF">
            <path d="M209.5,528 C211.432997,528 213,529.567003 213,531.5 L213,560.7 C213,562.632997 211.432997,564.2 209.5,564.2 C207.567003,564.2 206,562.632997 206,560.7 L206,531.5 C206,529.567003 207.567003,528 209.5,528 Z M228.5,528 C230.432997,528 232,529.567003 232,531.5 L232,560.7 C232,562.632997 230.432997,564.2 228.5,564.2 C226.567003,564.2 225,562.632997 225,560.7 L225,531.5 C225,529.567003 226.567003,528 228.5,528 Z" id="pause"></path>
        </g>
    </g>
</svg>