<?xml version="1.0" encoding="UTF-8"?>
<svg width="17px" height="13px" viewBox="0 0 17 13" version="1.1" xmlns="http://www.w3.org/2000/svg" xmlns:xlink="http://www.w3.org/1999/xlink">
    <!-- Generator: Sketch 49.3 (51167) - http://www.bohemiancoding.com/sketch -->
    <title>shuffle</title>
    <desc>Created with Sketch.</desc>
    <defs></defs>
    <g id="Page-1" stroke="none" stroke-width="1" fill="none" fill-rule="evenodd" fill-opacity="0.35">
        <g id="Artboard" transform="translate(-333.000000, -404.000000)" fill="#FFFFFF" fill-rule="nonzero">
            <path d="M349.26973,406.504788 C349.498726,406.733529 349.498279,407.103943 349.268664,407.332136 L346.91998,409.672229 C346.915266,409.677097 346.91045,409.681896 346.905564,409.686592 C346.672337,409.911082 346.300598,409.904638 346.075318,409.672229 C345.850003,409.439855 345.856471,409.069475 346.089733,408.845019 L347.436114,407.503563 L344.156207,407.503563 C342.535588,407.505482 341.222304,408.813963 341.220377,410.428654 C341.217763,412.68929 339.379089,414.521239 337.110189,414.52381 L333.58718,414.52381 C333.262884,414.52381 333,414.261887 333,413.938778 C333,413.615668 333.262884,413.353746 333.587214,413.353746 L337.110223,413.353746 C338.730842,413.351826 340.044126,412.043345 340.046052,410.428654 C340.048667,408.168018 341.887341,406.336069 344.156241,406.333499 L347.436149,406.333499 L346.089183,404.991459 C345.869407,404.764741 345.869407,404.40533 346.089183,404.178612 C346.314463,403.946203 346.686167,403.939759 346.919429,404.164215 L349.268113,406.504309 L349.268698,406.503726 C349.269042,406.504103 349.269386,406.504446 349.26973,406.504788 Z M349.27601,413.459707 C349.496613,413.701729 349.496182,414.09365 349.275016,414.335055 L347.012415,416.811018 C347.007841,416.816204 347.003201,416.821246 346.998494,416.826251 C346.773782,417.063739 346.415701,417.05692 346.198678,416.811018 C345.981655,416.565115 345.987886,416.173267 346.212598,415.935779 L347.509632,414.516435 L344.349938,414.516435 C343.375589,414.517197 342.435277,414.124152 341.709503,413.412776 C341.481741,413.185406 341.462286,412.80034 341.665786,412.546894 C341.872005,412.290111 342.22939,412.264831 342.464079,412.490496 C342.982508,412.998441 343.654059,413.279016 344.349938,413.278472 L347.509632,413.278472 L346.212035,411.858512 C346.000314,411.618666 346.000314,411.238388 346.212035,410.998506 C346.429058,410.752604 346.787139,410.745785 347.011851,410.983273 L349.274452,413.459236 L349.275016,413.458619 C349.275347,413.458982 349.275679,413.459345 349.27601,413.459707 Z M340.108529,407.416404 C340.35384,407.6101 340.374795,407.93814 340.155614,408.154083 C339.933506,408.372837 339.548583,408.394373 339.295811,408.202128 C338.737435,407.769408 338.014138,407.530385 337.264639,407.530848 L333.609244,407.530848 C333.272762,407.530848 333,407.29476 333,407.00352 C333,406.71228 333.272762,406.476191 333.609244,406.476191 L337.264639,406.476191 C338.314066,406.475543 339.326831,406.810379 340.108529,407.416404 Z" id="shuffle"></path>
        </g>
    </g>
</svg>