<?xml version="1.0" encoding="UTF-8"?>
<svg width="18px" height="13px" viewBox="0 0 18 13" version="1.1" xmlns="http://www.w3.org/2000/svg" xmlns:xlink="http://www.w3.org/1999/xlink">
    <!-- Generator: Sketch 49.3 (51167) - http://www.bohemiancoding.com/sketch -->
    <title>slow</title>
    <desc>Created with Sketch.</desc>
    <defs></defs>
    <g id="Page-1" stroke="none" stroke-width="1" fill="none" fill-rule="evenodd">
        <g id="Artboard" transform="translate(-147.000000, -404.000000)" fill="#FFFFFF" fill-rule="nonzero">
            <path d="M164.865789,410.234428 L156.339474,404.059386 C156.242842,403.989186 156.117474,403.980735 156.012316,404.036636 C155.907789,404.092211 155.842105,404.203687 155.842105,404.324913 L155.842105,410.102478 L147.497368,404.062961 C147.401053,403.993736 147.275368,403.984635 147.170211,404.040536 C147.065684,404.096436 147,404.207912 147,404.329138 L147,416.671098 C147,416.792324 147.065684,416.903799 147.170211,416.9597 C147.216316,416.98375 147.266211,416.995775 147.315789,416.995775 C147.379579,416.995775 147.443053,416.975625 147.497368,416.936625 L155.842105,410.897433 L155.842105,416.674998 C155.842105,416.796224 155.907789,416.907699 156.012316,416.9636 C156.058421,416.987975 156.108316,417 156.157895,417 C156.221684,417 156.285474,416.97985 156.339474,416.940525 L164.865789,410.765482 C164.950105,410.705032 165,410.605581 165,410.499955 C165,410.39433 164.950105,410.294879 164.865789,410.234428 Z" id="slow" transform="translate(156.000000, 410.500000) rotate(-180.000000) translate(-156.000000, -410.500000) "></path>
        </g>
    </g>
</svg>