<?xml version="1.0" encoding="UTF-8"?>
<svg width="39px" height="38px" viewBox="0 0 39 38" version="1.1" xmlns="http://www.w3.org/2000/svg" xmlns:xlink="http://www.w3.org/1999/xlink">
    <title>behance</title>
    <g id="Page-1" stroke="none" stroke-width="1" fill="none" fill-rule="evenodd">
        <g id="Desktop-HD" transform="translate(-580.000000, -418.000000)" fill="#313746" fill-rule="nonzero">
            <g id="social" transform="translate(533.000000, 418.000000)">
                <g id="behance" transform="translate(47.952381, 0.000000)">
                    <rect id="Rectangle-Copy-10" opacity="0" x="0" y="0" width="38" height="38"></rect>
                    <g id="group" transform="translate(6.000000, 11.000000)">
                        <path d="M24.0899507,2.18999551 L16.4249664,2.18999551 L16.4249664,0 L24.0899507,0 L24.0899507,2.18999551 Z M25.9799168,13.1399731 C25.4959278,14.5601852 23.7581664,16.4249664 20.3943333,16.4249664 C17.0283101,16.4249664 14.3017657,14.5317152 14.3017657,10.2108541 C14.3017657,5.92941286 16.8476355,3.72846737 20.2870234,3.72846737 C23.6618066,3.72846737 25.7225924,5.67975337 26.1726365,8.57492745 C26.2580463,9.12899631 26.2919912,9.87578482 26.2766612,10.9182226 L17.4871142,10.9182226 C17.6294639,14.4342605 21.3009914,14.5448552 22.5109639,13.1399731 L25.9799168,13.1399731 Z M17.563764,8.75998207 L23.0004279,8.75998207 C22.8854531,7.06602054 21.7565105,6.33018204 20.2881185,6.33018204 C18.6828518,6.33018204 17.7948086,7.17114032 17.563764,8.75998207 Z M7.08025551,16.4118264 L0,16.4118264 L0,0.0229949529 L7.61351941,0.0229949529 C13.6097271,0.111689771 13.7236069,5.98416275 10.5919134,7.58504947 C14.3817006,8.96474665 14.5087203,16.4118264 7.08025551,16.4118264 Z M3.28499328,6.56998655 L7.20946524,6.56998655 C9.95571959,6.56998655 10.3915288,3.28499328 6.86782594,3.28499328 L3.28499328,3.28499328 L3.28499328,6.56998655 Z M6.99813068,9.85497983 L3.28499328,9.85497983 L3.28499328,13.1574931 L6.94338079,13.1574931 C10.2885989,13.1574931 10.0838343,9.85497983 6.99813068,9.85497983 L6.99813068,9.85497983 Z" id="Shape"></path>
                    </g>
                </g>
            </g>
        </g>
    </g>
</svg>