<?xml version="1.0" encoding="UTF-8"?>
<svg width="91px" height="20px" viewBox="0 0 91 20" version="1.1" xmlns="http://www.w3.org/2000/svg" xmlns:xlink="http://www.w3.org/1999/xlink">
    <title>Sendoso-Logo-1</title>
    <g id="Page-1" stroke="none" stroke-width="1" fill="none" fill-rule="evenodd">
        <g id="Desktop-HD" transform="translate(-863.000000, -199.000000)" fill="#F37021" fill-rule="nonzero">
            <g id="hover" transform="translate(512.000000, 178.000000)">
                <g id="tooltip" transform="translate(174.000000, 0.000000)">
                    <g id="Group-4" transform="translate(20.000000, 21.000000)">
                        <g id="Sendoso-Logo-1" transform="translate(157.000000, 0.000000)">
                            <path d="M84.0676772,7.61994057 C87.6362187,7.63333629 90.2091484,9.73423408 90.1958285,12.9492105 C90.1823002,17.1309124 86.4638576,20.013228 82.7812125,19.999925 C79.2014844,19.9886692 76.6352668,17.9100977 76.6463808,14.672795 C76.6621146,10.5134193 80.3559467,7.60877746 84.0632027,7.62217319 L84.0632027,7.62217319 L84.0676772,7.61994057 Z M15.265303,0 L20.0420027,4.40049894 L13.5224229,8.85681341 L13.9698889,6.57507323 L8.32957985,6.55497963 C7.73668738,6.55274701 6.5106305,6.84522056 6.5106305,7.75836316 C6.50839318,8.31651879 7.40779986,8.78090425 8.44815831,9.32119891 C10.262633,10.2700635 12.7527814,11.5515888 12.7393574,14.572327 C12.7281708,17.6377177 9.90242287,20.013228 6.30479613,19.9999445 L6.30479613,19.9999445 L0,19.9775061 L0.877033385,15.7645474 L6.38086533,15.784641 L6.38086533,15.784641 L6.4025679,15.7844379 C6.61409069,15.7808903 8.15059345,15.7162466 8.15059345,14.5566986 C8.15283077,14.0297997 7.27803469,13.5654143 6.26452417,13.0251196 C4.45676149,12.0561614 1.96885046,10.7277511 1.97779978,7.73380433 C1.99122376,4.20849339 5.30247224,2.32862526 8.41236104,2.32862526 L8.41236104,2.32862526 L14.8021757,2.35095148 L15.265303,0 Z M72.5476648,7.59091649 C75.3980232,7.59091649 77.0111383,8.95058358 77.0111383,8.95058358 L77.0111383,8.95058358 L75.2973434,11.656522 C75.2973434,11.656522 74.3106807,10.7969624 72.5364782,10.7969624 C71.9614841,10.7947298 71.2455386,10.9644091 71.2455386,11.4109335 L71.2455386,11.4109335 L71.2522507,11.4131662 C71.2522507,12.3330066 75.9506436,12.5919909 75.9506436,16.1641868 C75.9416946,18.4593228 73.9101987,19.9596451 70.9390245,19.9596451 C69.137959,19.9320265 67.3947155,19.3208243 65.9721516,18.2181995 L65.9721516,18.2181995 L67.96785,15.6752425 C68.819899,16.3485757 69.8702208,16.7235738 70.9569229,16.7424361 C71.5766636,16.7446687 72.2478625,16.5638263 72.2478625,16.1485585 C72.252337,15.092528 67.5561814,14.891592 67.567368,11.3997704 C67.567368,9.10016929 70.028431,7.57082286 72.5476648,7.59091649 Z M60.4951676,7.53947455 C64.0637091,7.55296189 66.6366388,9.65162705 66.6255244,12.8688361 C66.6097907,17.050538 62.8935853,19.9328536 59.2087029,19.9195505 C55.6401615,19.9060622 53.0806556,17.8297232 53.0806556,14.590188 C53.0940799,10.4419754 56.7879116,7.52617043 60.4951676,7.53947455 Z M50.1027694,3.1859523 L54.0874544,3.19488279 L50.8276646,19.611356 L47.0980353,19.611356 L47.2613604,18.8299381 C47.2658349,18.8066351 47.2703007,18.7836286 47.2747415,18.7609726 L47.300954,18.6296742 C47.3565256,18.3561774 47.4023121,18.1601513 47.4023121,18.1601513 L47.4023121,18.1601513 L47.3575656,18.1601513 C46.5524078,19.2355382 45.2863823,19.8692874 43.9411625,19.8703402 C41.0415827,19.8524792 39.3434494,17.8609799 39.3545267,14.7687978 C39.3770093,10.379462 42.5092712,7.4748201 46.0353034,7.49044845 C47.0264406,7.49268107 48.3554146,7.7516653 49.0266139,8.55764201 L49.0266139,8.55764201 L49.0713605,8.55764201 C49.0713605,8.55764201 49.095971,8.25177274 49.1429548,8.02851049 L49.1429548,8.02851049 L50.1027694,3.1859523 Z M20.6080472,7.3944457 C23.9707543,7.40560881 25.6577012,9.31896629 25.6577012,12.0539288 C25.6209275,12.8445885 25.4702249,13.625841 25.2102352,14.3736236 L25.2102352,14.3736236 L17.7263661,14.3468322 C17.7218915,15.6797078 18.5720769,16.4678235 20.0464774,16.4678235 C21.7826455,16.4745214 23.5725096,15.2867662 23.5725096,15.2867662 L23.5725096,15.2867662 L24.5748335,18.2561541 C24.5748335,18.2561541 22.4650312,19.77657 19.7802351,19.77657 C15.7217184,19.7609417 13.7394439,17.3653377 13.7394439,14.5857227 C13.7528679,10.4709995 16.688245,7.38104997 20.6013353,7.39891094 L20.6013353,7.39891094 L20.6080472,7.3944457 Z M35.2111006,7.44802865 L35.2111006,7.45695913 C37.2604949,7.4748201 38.9317805,8.36786912 38.9317805,10.8237538 C38.9154474,11.2640125 38.8592859,11.7018981 38.7639807,12.1320706 L38.7639807,12.1320706 L37.2873429,19.5734014 L33.3048954,19.557773 L34.665192,12.7616702 C34.7050391,12.5336918 34.7282193,12.3031236 34.7345493,12.0717898 C34.7367866,11.3595833 34.3944751,11.0581792 33.6807668,11.0581792 C32.1146358,11.0537139 30.7722377,12.5875256 30.4433502,14.3088776 L30.4433502,14.3088776 L29.411941,19.5443773 L25.4294935,19.5309816 L27.7742154,7.69808235 L31.6179485,7.70924546 L31.5016073,8.30758831 C31.421372,8.70273737 31.3197982,9.09327142 31.1973304,9.47748248 L31.1973304,9.47748248 L31.2443144,9.47748248 C31.9155134,8.42368465 33.5756123,7.44802865 35.2111006,7.44802865 L35.2111006,7.44802865 Z M84.0050319,10.9309197 C82.4389009,10.9309197 80.6758524,12.3419371 80.6758524,14.5031157 C80.6714101,15.8806438 81.5887154,16.6911298 82.8572817,16.6911298 L82.8572817,16.6911298 C84.4457859,16.7000163 86.1618507,15.3515123 86.1618507,13.1903337 C86.1662929,11.7882468 85.2489876,10.9309197 84.0050319,10.9309197 Z M60.4392344,10.8460801 C58.8708658,10.8460801 57.1100549,12.2593301 57.1100549,14.4182761 C57.1056127,15.7980368 58.022918,16.6085227 59.2892466,16.6085227 L59.2892466,16.6085227 C60.8777513,16.6174092 62.5938157,15.2666726 62.5938157,13.1077266 C62.5982579,11.7056397 61.6831898,10.8460801 60.4392344,10.8460801 Z M46.3686656,10.8415924 C45.0106062,10.8371496 43.3862629,12.1633273 43.3862629,14.4852547 C43.38183,15.7712453 44.0933009,16.5817083 45.2432887,16.5817083 C46.5096174,16.5861525 48.2033301,15.1729025 48.2033301,12.94028 C48.2077511,11.8128056 47.6596052,10.8415924 46.3686656,10.8415924 Z M20.5230287,10.3816946 C19.379753,10.3772294 18.6302475,11.1340884 18.261088,12.0740225 L18.261088,12.0740225 L21.7602722,12.0874182 C21.7602722,12.0874182 21.7848991,11.810573 21.7848991,11.6721504 C21.7871202,10.9376176 21.3284675,10.3816946 20.5230287,10.3816946 Z" id="Shape"></path>
                        </g>
                    </g>
                </g>
            </g>
        </g>
    </g>
</svg>