<?xml version="1.0" encoding="UTF-8"?>
<svg width="39px" height="38px" viewBox="0 0 39 38" version="1.1" xmlns="http://www.w3.org/2000/svg" xmlns:xlink="http://www.w3.org/1999/xlink">
    <title>dribbble</title>
    <g id="Page-1" stroke="none" stroke-width="1" fill="none" fill-rule="evenodd">
        <g id="Desktop-HD" transform="translate(-628.000000, -418.000000)" fill="#313746" fill-rule="nonzero">
            <g id="social" transform="translate(533.000000, 418.000000)">
                <g id="dribbble" transform="translate(95.904762, 0.000000)">
                    <rect id="Rectangle-Copy-9" opacity="0" x="0" y="0" width="38" height="38"></rect>
                    <g id="group" transform="translate(8.360000, 8.360000)" stroke="#313746" stroke-width="0.5">
                        <path d="M10.64,0 C4.7660816,0 0,4.7660816 0,10.64 C0,16.5139184 4.7660816,21.28 10.64,21.28 C16.5023846,21.28 21.28,16.5139184 21.28,10.64 C21.28,4.7660816 16.5023846,0 10.64,0 Z M17.6679328,4.90455056 C18.9373486,6.4509256 19.6990024,8.42430512 19.7220912,10.5592211 C19.4220432,10.5015098 16.4216058,9.88990128 13.3981008,10.2707069 C13.3288557,10.1207042 13.2711443,9.95912512 13.2019205,9.79756736 C13.0172739,9.3590504 12.8095386,8.9089784 12.6018245,8.4819952 C15.9484662,7.12026672 17.4717525,5.15844224 17.6679328,4.90455056 Z M10.64,1.56945746 C12.9480288,1.56945746 15.0598773,2.434964 16.6639424,3.85440384 C16.5023846,4.08520672 15.1291011,5.920096 11.8978821,7.13180048 C10.4091971,4.39678848 8.7589544,2.1580048 8.505084,1.81180048 C9.1859376,1.65023846 9.90143504,1.56945746 10.64,1.56945746 Z M6.7740624,2.42343024 C7.01639904,2.74654576 8.6320192,4.99688448 10.1437717,7.67418512 C5.8970072,8.80511072 2.14647104,8.78211389 1.74255962,8.78211389 C2.33109632,5.96625232 4.23523072,3.62360096 6.7740624,2.42343024 Z M1.54637717,10.6515338 C1.54637717,10.5592211 1.54637717,10.4669085 1.54637717,10.3745746 C1.93874206,10.3861083 6.3470792,10.4438197 10.8823366,9.0820912 C11.1477621,9.58985328 11.3900987,10.1091491 11.6209016,10.6284662 C11.5055002,10.6630888 11.378565,10.6977114 11.2631635,10.7323126 C6.57788208,12.2440864 4.08520672,16.3754494 3.87749264,16.7216538 C2.434964,15.1175674 1.54637717,12.9826514 1.54637717,10.6515338 Z M10.64,19.733625 C8.53970656,19.733625 6.6009496,19.0181275 5.06610832,17.8179568 C5.22768736,17.4833075 7.0741104,13.9289304 12.1979088,12.1402187 C12.2209976,12.128685 12.2325314,12.128685 12.2556202,12.1171299 C13.5365698,15.4291491 14.0558869,18.2103174 14.1943558,19.0065938 C13.0980528,19.4797333 11.8978821,19.733625 10.64,19.733625 Z M15.7061296,18.1757162 C15.6137957,17.6217765 15.1291224,14.9675434 13.9404854,11.7017018 C16.7908989,11.2516298 19.283553,11.9901947 19.5951347,12.0940624 C19.2027741,14.621339 17.7487117,16.8024326 15.7061296,18.1757162 Z" id="Shape"></path>
                    </g>
                </g>
            </g>
        </g>
    </g>
</svg>