<?xml version="1.0" encoding="UTF-8"?>
<svg width="39px" height="38px" viewBox="0 0 39 38" version="1.1" xmlns="http://www.w3.org/2000/svg" xmlns:xlink="http://www.w3.org/1999/xlink">
    <title>email</title>
    <g id="Page-1" stroke="none" stroke-width="1" fill="none" fill-rule="evenodd">
        <g id="Desktop-HD" transform="translate(-724.000000, -418.000000)">
            <g id="social" transform="translate(533.000000, 418.000000)">
                <g id="email" transform="translate(191.809524, 0.000000)">
                    <rect id="Rectangle-Copy-11" fill="#313746" fill-rule="nonzero" opacity="0" x="0" y="0" width="38" height="38"></rect>
                    <g id="Shape" transform="translate(8.360000, 10.640000)" stroke="#313746" stroke-width="2">
                        <path d="M0,3.54666667 L9.32773331,9.76515556 C10.1222739,10.2952629 11.1577261,10.2952629 11.9522667,9.76515556 L21.28,3.54666667 M2.36444444,16.5511111 L18.9155556,16.5511111 C20.2214022,16.5511111 21.28,15.4925133 21.28,14.1866667 L21.28,2.36444444 C21.28,1.05859784 20.2214022,0 18.9155556,0 L2.36444444,0 C1.05859784,0 0,1.05859784 0,2.36444444 L0,14.1866667 C0,15.4925133 1.05859784,16.5511111 2.36444444,16.5511111 Z"></path>
                    </g>
                </g>
            </g>
        </g>
    </g>
</svg>