<?xml version="1.0" encoding="UTF-8"?>
<svg width="39px" height="38px" viewBox="0 0 39 38" version="1.1" xmlns="http://www.w3.org/2000/svg" xmlns:xlink="http://www.w3.org/1999/xlink">
    <title>linkedin</title>
    <g id="Page-1" stroke="none" stroke-width="1" fill="none" fill-rule="evenodd">
        <g id="Desktop-HD" transform="translate(-676.000000, -418.000000)" fill="#313746" fill-rule="nonzero">
            <g id="social" transform="translate(533.000000, 418.000000)">
                <g id="linkedin" transform="translate(143.857143, 0.000000)">
                    <rect id="Rectangle-Copy-8" opacity="0" x="0" y="0" width="38" height="38"></rect>
                    <g id="group" transform="translate(8.360000, 8.360000)">
                        <path d="M4.4156,2.21666667 C4.4156,3.44115333 3.4314,4.43333333 2.21666667,4.43333333 C1.00193333,4.43333333 0.0177333333,3.44115333 0.0177333333,2.21666667 C0.0177333333,0.993066669 1.00193333,0 2.21666667,0 C3.4314,0 4.4156,0.993066669 4.4156,2.21666667 Z M4.43333333,6.20666667 L0,6.20666667 L0,20.3933333 L4.43333333,20.3933333 L4.43333333,6.20666667 Z M11.5107067,6.20666667 L7.10574667,6.20666667 L7.10574667,20.3933333 L11.5115933,20.3933333 L11.5115933,12.94622 C11.5115933,8.80548669 16.8573067,8.46678 16.8573067,12.94622 L16.8573067,20.3933333 L21.28,20.3933333 L21.28,11.4105133 C21.28,4.42358 13.36916,4.67805333 11.5107067,8.11743331 L11.5107067,6.20666667 Z" id="Shape"></path>
                    </g>
                </g>
            </g>
        </g>
    </g>
</svg>