<?xml version="1.0" encoding="UTF-8"?>
<svg width="49px" height="15px" viewBox="0 0 49 15" version="1.1" xmlns="http://www.w3.org/2000/svg" xmlns:xlink="http://www.w3.org/1999/xlink">
    <title>Saleh. Copy</title>
    <g id="Page-1" stroke="none" stroke-width="1" fill="none" fill-rule="evenodd">
        <path d="M5.22,14.27 C8.262,14.27 9.936,12.236 9.936,10.238 C9.936,8.42 8.676,6.854 6.246,6.404 L4.536,6.08 C3.654,5.918 3.276,5.468 3.276,4.856 C3.276,4.154 3.96,3.488 5.022,3.488 C6.57,3.488 7.056,4.496 7.146,5.09 L9.702,4.37 C9.432,2.876 8.226,0.968 5.04,0.968 C2.592,0.968 0.468,2.66 0.468,5.072 C0.468,6.962 1.782,8.402 3.942,8.816 L5.688,9.14 C6.534,9.302 7.056,9.77 7.056,10.418 C7.056,11.21 6.372,11.75 5.256,11.75 C3.51,11.75 2.718,10.724 2.61,9.554 L0,10.184 C0.18,11.984 1.692,14.27 5.22,14.27 Z M13.6755,14.252 C14.8635,14.252 15.7275,13.748 16.1955,12.992 C16.1955,13.604 16.2675,13.928 16.2855,14 L18.7515,14 C18.7335,13.91 18.6435,13.316 18.6435,12.614 L18.6435,8.24 C18.6435,6.404 17.5815,4.784 14.6835,4.784 C12.0555,4.784 10.8675,6.476 10.7595,7.754 L13.1355,8.24 C13.1895,7.574 13.7115,6.926 14.6655,6.926 C15.5295,6.926 15.9795,7.376 15.9795,7.898 C15.9795,8.204 15.8175,8.438 15.3315,8.51 L13.2255,8.834 C11.7495,9.05 10.5795,9.95 10.5795,11.534 C10.5795,12.956 11.7135,14.252 13.6755,14.252 Z M14.3415,12.272 C13.5855,12.272 13.2795,11.822 13.2795,11.354 C13.2795,10.724 13.7115,10.454 14.2875,10.364 L15.9795,10.094 L15.9795,10.49 C15.9795,11.876 15.1515,12.272 14.3415,12.272 Z M23.121,14 L23.121,0.968 L20.385,0.968 L20.385,14 L23.121,14 Z M28.9845,14.27 C31.2525,14.27 32.6745,12.974 33.1065,11.426 L30.8205,10.778 C30.5685,11.48 30.0105,11.948 29.0205,11.948 C27.9585,11.948 27.0405,11.228 26.9865,10.22 L33.2145,10.22 C33.2325,10.166 33.2685,9.752 33.2685,9.374 C33.2685,6.494 31.5585,4.784 28.7865,4.784 C26.4645,4.784 24.3225,6.62 24.3225,9.5 C24.3225,12.506 26.5185,14.27 28.9845,14.27 Z M30.6225,8.456 L27.0405,8.456 C27.0945,7.79 27.6705,6.944 28.8225,6.944 C30.1185,6.944 30.5865,7.772 30.6225,8.456 Z M37.206,14 L37.206,8.744 C37.26,7.916 37.818,7.304 38.682,7.304 C39.672,7.304 40.14,7.97 40.14,8.852 L40.14,14 L42.876,14 L42.876,8.384 C42.876,6.422 41.832,4.82 39.492,4.82 C38.7,4.82 37.764,5.072 37.206,5.63 L37.206,0.968 L34.47,0.968 L34.47,14 L37.206,14 Z M46.3455,14.162 C47.3535,14.162 48.1995,13.298 48.1995,12.308 C48.1995,11.3 47.3535,10.472 46.3455,10.472 C45.3375,10.472 44.5095,11.3 44.5095,12.308 C44.5095,13.298 45.3375,14.162 46.3455,14.162 Z" id="Saleh.-Copy" fill="#F4F6F8" fill-rule="nonzero"></path>
    </g>
</svg>