<?xml version="1.0" encoding="UTF-8"?>
<svg width="49px" height="15px" viewBox="0 0 49 15" version="1.1" xmlns="http://www.w3.org/2000/svg" xmlns:xlink="http://www.w3.org/1999/xlink">
    <title>Saleh</title>
    <g id="Page-1" stroke="none" stroke-width="1" fill="none" fill-rule="evenodd">
        <path d="M5.688,14.27 C8.73,14.27 10.404,12.236 10.404,10.238 C10.404,8.42 9.144,6.854 6.714,6.404 L5.004,6.08 C4.122,5.918 3.744,5.468 3.744,4.856 C3.744,4.154 4.428,3.488 5.49,3.488 C7.038,3.488 7.524,4.496 7.614,5.09 L10.17,4.37 C9.9,2.876 8.694,0.968 5.508,0.968 C3.06,0.968 0.936,2.66 0.936,5.072 C0.936,6.962 2.25,8.402 4.41,8.816 L6.156,9.14 C7.002,9.302 7.524,9.77 7.524,10.418 C7.524,11.21 6.84,11.75 5.724,11.75 C3.978,11.75 3.186,10.724 3.078,9.554 L0.468,10.184 C0.648,11.984 2.16,14.27 5.688,14.27 Z M14.1435,14.252 C15.3315,14.252 16.1955,13.748 16.6635,12.992 C16.6635,13.604 16.7355,13.928 16.7535,14 L19.2195,14 C19.2015,13.91 19.1115,13.316 19.1115,12.614 L19.1115,8.24 C19.1115,6.404 18.0495,4.784 15.1515,4.784 C12.5235,4.784 11.3355,6.476 11.2275,7.754 L13.6035,8.24 C13.6575,7.574 14.1795,6.926 15.1335,6.926 C15.9975,6.926 16.4475,7.376 16.4475,7.898 C16.4475,8.204 16.2855,8.438 15.7995,8.51 L13.6935,8.834 C12.2175,9.05 11.0475,9.95 11.0475,11.534 C11.0475,12.956 12.1815,14.252 14.1435,14.252 Z M14.8095,12.272 C14.0535,12.272 13.7475,11.822 13.7475,11.354 C13.7475,10.724 14.1795,10.454 14.7555,10.364 L16.4475,10.094 L16.4475,10.49 C16.4475,11.876 15.6195,12.272 14.8095,12.272 Z M23.589,14 L23.589,0.968 L20.853,0.968 L20.853,14 L23.589,14 Z M29.4525,14.27 C31.7205,14.27 33.1425,12.974 33.5745,11.426 L31.2885,10.778 C31.0365,11.48 30.4785,11.948 29.4885,11.948 C28.4265,11.948 27.5085,11.228 27.4545,10.22 L33.6825,10.22 C33.7005,10.166 33.7365,9.752 33.7365,9.374 C33.7365,6.494 32.0265,4.784 29.2545,4.784 C26.9325,4.784 24.7905,6.62 24.7905,9.5 C24.7905,12.506 26.9865,14.27 29.4525,14.27 Z M31.0905,8.456 L27.5085,8.456 C27.5625,7.79 28.1385,6.944 29.2905,6.944 C30.5865,6.944 31.0545,7.772 31.0905,8.456 Z M37.674,14 L37.674,8.744 C37.728,7.916 38.286,7.304 39.15,7.304 C40.14,7.304 40.608,7.97 40.608,8.852 L40.608,14 L43.344,14 L43.344,8.384 C43.344,6.422 42.3,4.82 39.96,4.82 C39.168,4.82 38.232,5.072 37.674,5.63 L37.674,0.968 L34.938,0.968 L34.938,14 L37.674,14 Z M46.8135,14.162 C47.8215,14.162 48.6675,13.298 48.6675,12.308 C48.6675,11.3 47.8215,10.472 46.8135,10.472 C45.8055,10.472 44.9775,11.3 44.9775,12.308 C44.9775,13.298 45.8055,14.162 46.8135,14.162 Z" id="Saleh." fill="#313746" fill-rule="nonzero"></path>
    </g>
</svg>