<?xml version="1.0" encoding="UTF-8"?>
<svg width="39px" height="38px" viewBox="0 0 39 38" version="1.1" xmlns="http://www.w3.org/2000/svg" xmlns:xlink="http://www.w3.org/1999/xlink">
    <title>medium</title>
    <g id="Page-1" stroke="none" stroke-width="1" fill="none" fill-rule="evenodd">
        <g id="Desktop-HD" transform="translate(-820.000000, -418.000000)">
            <g id="social" transform="translate(533.000000, 418.000000)">
                <g id="medium" transform="translate(287.714286, 0.000000)">
                    <rect id="Rectangle-Copy-11" fill="#313746" fill-rule="nonzero" opacity="0" x="0" y="0" width="38" height="38"></rect>
                    <g id="resume-copy-2" transform="translate(8.360000, 12.920000)">
                        <rect id="Rectangle-Copy-11" fill="#313746" fill-rule="nonzero" opacity="0" x="9.64122609" y="4.99386973" width="1.01915709" height="1.01915709"></rect>
                        <g id="Group" transform="translate(9.494132, 4.673417)">
                            <g id="Group-2" transform="translate(0.979813, 1.145454) scale(-1, 1) rotate(-180.000000) translate(-0.979813, -1.145454) translate(0.386063, 0.551704)">
                                <polygon id="Rectangle" stroke="#313746" stroke-width="2.5" points="0.00642559841 0.33243607 0.681113424 0.33243607 0.861030176 0.504407805 0.861030176 1.17950875 0.00642559841 1.17950875"></polygon>
                                <polygon id="Rectangle" fill="#313746" fill-rule="nonzero" points="0.847190427 0.517833109 0.660353798 0.517833109 0.660353798 0.345222073"></polygon>
                            </g>
                            <circle id="Oval" stroke="#313746" stroke-width="2.5" cx="0.76" cy="0.76" r="1"></circle>
                            <line x1="0.582666667" y1="1.07525926" x2="0.94642735" y2="1.07525926" id="Path-3-Copy" stroke="#313746" stroke-width="2.5"></line>
                            <line x1="0.582666667" y1="0.963792592" x2="0.94642735" y2="0.963792592" id="Path-3" stroke="#313746" stroke-width="2.5"></line>
                        </g>
                        <g id="medium" fill="#313746" fill-rule="nonzero">
                            <path d="M11.9989441,6.04074789 C11.9989441,9.37685667 9.31285365,12.081292 5.99957395,12.081292 C2.68629425,12.081292 0,9.37624525 0,6.04074789 C0,2.70525057 2.68609042,0 5.99957395,0 C9.31305748,0 11.9989441,2.70463908 11.9989441,6.04074789 M18.5804567,6.04074789 C18.5804567,9.18097472 17.2374115,11.7276444 15.5806697,11.7276444 C13.923928,11.7276444 12.5808828,9.18097472 12.5808828,6.04074789 C12.5808828,2.90052108 13.9237242,0.353851341 15.5804659,0.353851341 C17.2372077,0.353851341 18.5802528,2.89970575 18.5802528,6.04074789 M21.2724582,6.04074789 C21.2724582,8.85362144 20.8001808,11.1353103 20.2174268,11.1353103 C19.6346728,11.1353103 19.1625993,8.85423294 19.1625993,6.04074789 C19.1625993,3.22726284 19.6348766,0.946185438 20.2174268,0.946185438 C20.799977,0.946185438 21.2724582,3.22705901 21.2724582,6.04074789" id="Shape"></path>
                        </g>
                    </g>
                </g>
            </g>
        </g>
    </g>
</svg>