<svg width="52" height="52" viewBox="0 0 52 52" fill="none" xmlns="http://www.w3.org/2000/svg">
<circle cx="26" cy="26" r="26" fill="#F1F3F8"/>
<path d="M30.5 23H29.75V21.5C29.75 19.43 28.07 17.75 26 17.75C23.93 17.75 22.25 19.43 22.25 21.5V23H21.5C20.675 23 20 23.675 20 24.5V32C20 32.825 20.675 33.5 21.5 33.5H30.5C31.325 33.5 32 32.825 32 32V24.5C32 23.675 31.325 23 30.5 23ZM26 29.75C25.175 29.75 24.5 29.075 24.5 28.25C24.5 27.425 25.175 26.75 26 26.75C26.825 26.75 27.5 27.425 27.5 28.25C27.5 29.075 26.825 29.75 26 29.75ZM23.75 23V21.5C23.75 20.255 24.755 19.25 26 19.25C27.245 19.25 28.25 20.255 28.25 21.5V23H23.75Z" fill="#313746"/>
</svg>
