<?xml version="1.0" encoding="UTF-8"?>
<svg width="39px" height="38px" viewBox="0 0 39 38" version="1.1" xmlns="http://www.w3.org/2000/svg" xmlns:xlink="http://www.w3.org/1999/xlink">
    <title>twitter</title>
    <g id="Page-1" stroke="none" stroke-width="1" fill="none" fill-rule="evenodd">
        <g id="Desktop-HD" transform="translate(-772.000000, -418.000000)" fill="#313746" fill-rule="nonzero">
            <g id="social" transform="translate(533.000000, 418.000000)">
                <g id="twitter" transform="translate(239.761905, 0.000000)">
                    <rect id="Rectangle-Copy-6" opacity="0" x="0" y="0" width="38" height="38"></rect>
                    <g id="group" transform="translate(8.360009, 10.662380)">
                        <path d="M6.69232656,17.2944074 C14.7229185,17.2944074 19.1145369,10.6414269 19.1145369,4.87219711 C19.1145369,4.68325041 19.1106808,4.49516061 19.1021832,4.3078563 C19.954657,3.69160155 20.6955909,2.92253278 21.28,2.04706543 C20.4977182,2.39482448 19.6558842,2.62890131 18.7727761,2.73444297 C19.6741648,2.19395258 20.3661838,1.33890804 20.6926632,0.319624128 C19.8491154,0.819697359 18.9149503,1.18316626 17.9203023,1.37939662 C17.1235984,0.530778853 15.989347,0 14.7334155,0 C12.3223814,0 10.3672186,1.9552342 10.3672186,4.36534008 C10.3672186,4.70795772 10.4055648,5.04114945 10.4804723,5.360845 C6.85185299,5.17825364 3.63426058,3.44095797 1.480868,0.799274548 C1.10590234,1.4444497 0.889677616,2.19395258 0.889677616,2.99365557 C0.889677616,4.50837117 1.6604602,5.84556541 2.83255815,6.62784475 C2.11626021,6.60570814 1.44337858,6.40904932 0.855258751,6.08178449 C0.85461608,6.10013646 0.85461608,6.11798857 0.85461608,6.13755448 C0.85461608,8.25195803 2.35954872,10.0173173 4.35727093,10.4173473 C3.99044583,10.5173191 3.60441187,10.5709468 3.20602424,10.5709468 C2.92517488,10.5709468 2.65146638,10.5433117 2.38546998,10.4922547 C2.9413132,12.2269796 4.55307284,13.4893379 6.46396241,13.5246137 C4.96966962,14.6958547 3.08727202,15.3934436 1.04142053,15.3934436 C0.689448382,15.3934436 0.341760741,15.3733779 0,15.3329607 C1.93224068,16.5714685 4.2265935,17.2941218 6.69254079,17.2941218" id="Path"></path>
                    </g>
                </g>
            </g>
        </g>
    </g>
</svg>